<svg xmlns="http://www.w3.org/2000/svg" viewBox="0 0 80 56" fill="none" stroke="#39FF14" stroke-width="2">
  <rect width="80" height="56" />
  <rect width="40" height="28" />
  <g>
    <rect x="4" y="4" width="4" height="4" rx="1" />
    <rect x="12" y="4" width="4" height="4" rx="1" />
    <rect x="20" y="4" width="4" height="4" rx="1" />
    <rect x="28" y="4" width="4" height="4" rx="1" />
    <rect x="36" y="4" width="4" height="4" rx="1" />
    <rect x="4" y="12" width="4" height="4" rx="1" />
    <rect x="12" y="12" width="4" height="4" rx="1" />
    <rect x="20" y="12" width="4" height="4" rx="1" />
    <rect x="28" y="12" width="4" height="4" rx="1" />
    <rect x="36" y="12" width="4" height="4" rx="1" />
    <rect x="4" y="20" width="4" height="4" rx="1" />
    <rect x="12" y="20" width="4" height="4" rx="1" />
    <rect x="20" y="20" width="4" height="4" rx="1" />
    <rect x="28" y="20" width="4" height="4" rx="1" />
    <rect x="36" y="20" width="4" height="4" rx="1" />
  </g>
  <path d="M40 8H80" />
  <path d="M40 16H80" />
  <path d="M0 36H80" />
  <path d="M0 44H80" />
</svg>
