<svg xmlns="http://www.w3.org/2000/svg" viewBox="0 0 80 56" fill="none" stroke="#39FF14" stroke-width="1.2">
  <!-- Borda da bandeira -->
  <rect width="80" height="56" />
  
  <!-- Listras horizontais (13 listras alternando, 7 são coloridas) -->
  <path d="M0 8H80" />
  <path d="M0 16H80" />
  <path d="M0 24H80" />
  <path d="M0 32H80" />
  <path d="M0 40H80" />
  <path d="M0 48H80" />
  
  <!-- Retângulo que representa a área azul com estrelas -->
  <rect width="40" height="32" />

  <!-- Estrelas em formato de estrela de 5 pontas -->
  <g stroke-width="0.8">
    <!-- Linha 1: 6 estrelas -->
    <path d="M5 4L5.9 6.1L8.2 6.4L6.6 8L7 10.2L5 9.2L3 10.2L3.4 8L1.8 6.4L4.1 6.1Z" stroke-width="0.4" fill="#39FF14" />
    <path d="M13 4L13.9 6.1L16.2 6.4L14.6 8L15 10.2L13 9.2L11 10.2L11.4 8L9.8 6.4L12.1 6.1Z" stroke-width="0.4" fill="#39FF14" />
    <path d="M21 4L21.9 6.1L24.2 6.4L22.6 8L23 10.2L21 9.2L19 10.2L19.4 8L17.8 6.4L20.1 6.1Z" stroke-width="0.4" fill="#39FF14" />
    <path d="M29 4L29.9 6.1L32.2 6.4L30.6 8L31 10.2L29 9.2L27 10.2L27.4 8L25.8 6.4L28.1 6.1Z" stroke-width="0.4" fill="#39FF14" />
    <path d="M37 4L37.9 6.1L40.2 6.4L38.6 8L39 10.2L37 9.2L35 10.2L35.4 8L33.8 6.4L36.1 6.1Z" stroke-width="0.4" fill="#39FF14" />
    
    <!-- Linha 2: 5 estrelas (deslocadas) -->
    <path d="M9 8L9.9 10.1L12.2 10.4L10.6 12L11 14.2L9 13.2L7 14.2L7.4 12L5.8 10.4L8.1 10.1Z" stroke-width="0.4" fill="#39FF14" />
    <path d="M17 8L17.9 10.1L20.2 10.4L18.6 12L19 14.2L17 13.2L15 14.2L15.4 12L13.8 10.4L16.1 10.1Z" stroke-width="0.4" fill="#39FF14" />
    <path d="M25 8L25.9 10.1L28.2 10.4L26.6 12L27 14.2L25 13.2L23 14.2L23.4 12L21.8 10.4L24.1 10.1Z" stroke-width="0.4" fill="#39FF14" />
    <path d="M33 8L33.9 10.1L36.2 10.4L34.6 12L35 14.2L33 13.2L31 14.2L31.4 12L29.8 10.4L32.1 10.1Z" stroke-width="0.4" fill="#39FF14" />
    
    <!-- Linha 3: 6 estrelas -->
    <path d="M5 12L5.9 14.1L8.2 14.4L6.6 16L7 18.2L5 17.2L3 18.2L3.4 16L1.8 14.4L4.1 14.1Z" stroke-width="0.4" fill="#39FF14" />
    <path d="M13 12L13.9 14.1L16.2 14.4L14.6 16L15 18.2L13 17.2L11 18.2L11.4 16L9.8 14.4L12.1 14.1Z" stroke-width="0.4" fill="#39FF14" />
    <path d="M21 12L21.9 14.1L24.2 14.4L22.6 16L23 18.2L21 17.2L19 18.2L19.4 16L17.8 14.4L20.1 14.1Z" stroke-width="0.4" fill="#39FF14" />
    <path d="M29 12L29.9 14.1L32.2 14.4L30.6 16L31 18.2L29 17.2L27 18.2L27.4 16L25.8 14.4L28.1 14.1Z" stroke-width="0.4" fill="#39FF14" />
    <path d="M37 12L37.9 14.1L40.2 14.4L38.6 16L39 18.2L37 17.2L35 18.2L35.4 16L33.8 14.4L36.1 14.1Z" stroke-width="0.4" fill="#39FF14" />
    
    <!-- Linha 4: 5 estrelas (deslocadas) -->
    <path d="M9 16L9.9 18.1L12.2 18.4L10.6 20L11 22.2L9 21.2L7 22.2L7.4 20L5.8 18.4L8.1 18.1Z" stroke-width="0.4" fill="#39FF14" />
    <path d="M17 16L17.9 18.1L20.2 18.4L18.6 20L19 22.2L17 21.2L15 22.2L15.4 20L13.8 18.4L16.1 18.1Z" stroke-width="0.4" fill="#39FF14" />
    <path d="M25 16L25.9 18.1L28.2 18.4L26.6 20L27 22.2L25 21.2L23 22.2L23.4 20L21.8 18.4L24.1 18.1Z" stroke-width="0.4" fill="#39FF14" />
    <path d="M33 16L33.9 18.1L36.2 18.4L34.6 20L35 22.2L33 21.2L31 22.2L31.4 20L29.8 18.4L32.1 18.1Z" stroke-width="0.4" fill="#39FF14" />
    
    <!-- Linha 5: 6 estrelas -->
    <path d="M5 20L5.9 22.1L8.2 22.4L6.6 24L7 26.2L5 25.2L3 26.2L3.4 24L1.8 22.4L4.1 22.1Z" stroke-width="0.4" fill="#39FF14" />
    <path d="M13 20L13.9 22.1L16.2 22.4L14.6 24L15 26.2L13 25.2L11 26.2L11.4 24L9.8 22.4L12.1 22.1Z" stroke-width="0.4" fill="#39FF14" />
    <path d="M21 20L21.9 22.1L24.2 22.4L22.6 24L23 26.2L21 25.2L19 26.2L19.4 24L17.8 22.4L20.1 22.1Z" stroke-width="0.4" fill="#39FF14" />
    <path d="M29 20L29.9 22.1L32.2 22.4L30.6 24L31 26.2L29 25.2L27 26.2L27.4 24L25.8 22.4L28.1 22.1Z" stroke-width="0.4" fill="#39FF14" />
    <path d="M37 20L37.9 22.1L40.2 22.4L38.6 24L39 26.2L37 25.2L35 26.2L35.4 24L33.8 22.4L36.1 22.1Z" stroke-width="0.4" fill="#39FF14" />
    
    <!-- Linha 6: 5 estrelas (deslocadas) -->
    <path d="M9 24L9.9 26.1L12.2 26.4L10.6 28L11 30.2L9 29.2L7 30.2L7.4 28L5.8 26.4L8.1 26.1Z" stroke-width="0.4" fill="#39FF14" />
    <path d="M17 24L17.9 26.1L20.2 26.4L18.6 28L19 30.2L17 29.2L15 30.2L15.4 28L13.8 26.4L16.1 26.1Z" stroke-width="0.4" fill="#39FF14" />
    <path d="M25 24L25.9 26.1L28.2 26.4L26.6 28L27 30.2L25 29.2L23 30.2L23.4 28L21.8 26.4L24.1 26.1Z" stroke-width="0.4" fill="#39FF14" />
    <path d="M33 24L33.9 26.1L36.2 26.4L34.6 28L35 30.2L33 29.2L31 30.2L31.4 28L29.8 26.4L32.1 26.1Z" stroke-width="0.4" fill="#39FF14" />
  </g>
</svg>
